<?xml version="1.0" encoding="utf-8" ?>
<svg baseProfile="full" height="100%" version="1.1" width="100%" xmlns="http://www.w3.org/2000/svg" xmlns:ev="http://www.w3.org/2001/xml-events" xmlns:xlink="http://www.w3.org/1999/xlink"><defs /><g id="cuts" stroke="black"><line x1="10mm" x2="22.8mm" y1="0.16mm" y2="0.16mm" /><line x1="10mm" x2="22.8mm" y1="109.856mm" y2="109.856mm" /><line stroke-dasharray="6 2" x1="10mm" x2="22.8mm" y1="12.96mm" y2="12.96mm" /><line stroke-dasharray="6 2" x1="10mm" x2="22.8mm" y1="97.056mm" y2="97.056mm" /><line stroke-dasharray="6 2" x1="10mm" x2="22.8mm" y1="25.76mm" y2="25.76mm" /><line stroke-dasharray="6 2" x1="10mm" x2="22.8mm" y1="55.008mm" y2="55.008mm" /><line stroke-dasharray="6 2" x1="10mm" x2="22.8mm" y1="84.256mm" y2="84.256mm" /><line x1="10mm" x2="10mm" y1="0.16mm" y2="109.856mm" /><line x1="22.8mm" x2="22.8mm" y1="97.056mm" y2="109.856mm" /><line x1="22.8mm" x2="22.8mm" y1="12.96mm" y2="0.16mm" /><line x1="11.28mm" x2="21.52mm" y1="42.208mm" y2="42.208mm" /><line x1="11.28mm" x2="21.52mm" y1="38.56mm" y2="38.56mm" /><line x1="11.28mm" x2="11.28mm" y1="42.208mm" y2="38.56mm" /><line x1="21.52mm" x2="21.52mm" y1="42.208mm" y2="38.56mm" /><line x1="11.28mm" x2="21.52mm" y1="71.456mm" y2="71.456mm" /><line x1="11.28mm" x2="21.52mm" y1="67.808mm" y2="67.808mm" /><line x1="11.28mm" x2="11.28mm" y1="71.456mm" y2="67.808mm" /><line x1="21.52mm" x2="21.52mm" y1="71.456mm" y2="67.808mm" /><line x1="22.8mm" x2="35.6mm" y1="12.8mm" y2="12.8mm" /><line x1="22.8mm" x2="35.6mm" y1="97.216mm" y2="97.216mm" /><line stroke-dasharray="6 2" x1="22.8mm" x2="35.6mm" y1="25.6mm" y2="25.6mm" /><line stroke-dasharray="6 2" x1="22.8mm" x2="35.6mm" y1="55.008mm" y2="55.008mm" /><line stroke-dasharray="6 2" x1="22.8mm" x2="35.6mm" y1="84.416mm" y2="84.416mm" /><line stroke-dasharray="6 2" x1="22.8mm" x2="22.8mm" y1="25.6mm" y2="38.56mm" /><line x1="22.8mm" x2="22.8mm" y1="38.56mm" y2="71.456mm" /><line stroke-dasharray="6 2" x1="22.8mm" x2="22.8mm" y1="71.456mm" y2="84.416mm" /><line x1="22.8mm" x2="22.8mm" y1="12.8mm" y2="25.6mm" /><line x1="22.8mm" x2="22.8mm" y1="84.416mm" y2="97.216mm" /><line x1="24.08mm" x2="34.32mm" y1="42.208mm" y2="42.208mm" /><line x1="24.08mm" x2="34.32mm" y1="38.56mm" y2="38.56mm" /><line x1="24.08mm" x2="24.08mm" y1="42.208mm" y2="38.56mm" /><line x1="34.32mm" x2="34.32mm" y1="42.208mm" y2="38.56mm" /><line x1="24.08mm" x2="34.32mm" y1="71.456mm" y2="71.456mm" /><line x1="24.08mm" x2="34.32mm" y1="67.808mm" y2="67.808mm" /><line x1="24.08mm" x2="24.08mm" y1="71.456mm" y2="67.808mm" /><line x1="34.32mm" x2="34.32mm" y1="71.456mm" y2="67.808mm" /><line x1="35.6mm" x2="48.4mm" y1="12.64mm" y2="12.64mm" /><line x1="35.6mm" x2="48.4mm" y1="97.376mm" y2="97.376mm" /><line stroke-dasharray="6 2" x1="35.6mm" x2="48.4mm" y1="25.44mm" y2="25.44mm" /><line stroke-dasharray="6 2" x1="35.6mm" x2="48.4mm" y1="55.008mm" y2="55.008mm" /><line stroke-dasharray="6 2" x1="35.6mm" x2="48.4mm" y1="84.576mm" y2="84.576mm" /><line stroke-dasharray="6 2" x1="35.6mm" x2="35.6mm" y1="25.44mm" y2="38.56mm" /><line x1="35.6mm" x2="35.6mm" y1="38.56mm" y2="71.456mm" /><line stroke-dasharray="6 2" x1="35.6mm" x2="35.6mm" y1="71.456mm" y2="84.576mm" /><line x1="35.6mm" x2="35.6mm" y1="12.64mm" y2="25.44mm" /><line x1="35.6mm" x2="35.6mm" y1="84.576mm" y2="97.376mm" /><line x1="36.88mm" x2="47.12mm" y1="42.208mm" y2="42.208mm" /><line x1="36.88mm" x2="47.12mm" y1="38.56mm" y2="38.56mm" /><line x1="36.88mm" x2="36.88mm" y1="42.208mm" y2="38.56mm" /><line x1="47.12mm" x2="47.12mm" y1="42.208mm" y2="38.56mm" /><line x1="36.88mm" x2="47.12mm" y1="71.456mm" y2="71.456mm" /><line x1="36.88mm" x2="47.12mm" y1="67.808mm" y2="67.808mm" /><line x1="36.88mm" x2="36.88mm" y1="71.456mm" y2="67.808mm" /><line x1="47.12mm" x2="47.12mm" y1="71.456mm" y2="67.808mm" /><line x1="48.4mm" x2="61.2mm" y1="12.48mm" y2="12.48mm" /><line x1="48.4mm" x2="61.2mm" y1="97.536mm" y2="97.536mm" /><line stroke-dasharray="6 2" x1="48.4mm" x2="61.2mm" y1="25.28mm" y2="25.28mm" /><line stroke-dasharray="6 2" x1="48.4mm" x2="61.2mm" y1="55.008mm" y2="55.008mm" /><line stroke-dasharray="6 2" x1="48.4mm" x2="61.2mm" y1="84.736mm" y2="84.736mm" /><line stroke-dasharray="6 2" x1="48.4mm" x2="48.4mm" y1="25.28mm" y2="38.56mm" /><line x1="48.4mm" x2="48.4mm" y1="38.56mm" y2="71.456mm" /><line stroke-dasharray="6 2" x1="48.4mm" x2="48.4mm" y1="71.456mm" y2="84.736mm" /><line x1="48.4mm" x2="48.4mm" y1="12.48mm" y2="25.28mm" /><line x1="48.4mm" x2="48.4mm" y1="84.736mm" y2="97.536mm" /><line x1="49.68mm" x2="59.92mm" y1="42.208mm" y2="42.208mm" /><line x1="49.68mm" x2="59.92mm" y1="38.56mm" y2="38.56mm" /><line x1="49.68mm" x2="49.68mm" y1="42.208mm" y2="38.56mm" /><line x1="59.92mm" x2="59.92mm" y1="42.208mm" y2="38.56mm" /><line x1="49.68mm" x2="59.92mm" y1="71.456mm" y2="71.456mm" /><line x1="49.68mm" x2="59.92mm" y1="67.808mm" y2="67.808mm" /><line x1="49.68mm" x2="49.68mm" y1="71.456mm" y2="67.808mm" /><line x1="59.92mm" x2="59.92mm" y1="71.456mm" y2="67.808mm" /><line x1="61.2mm" x2="73.36mm" y1="26.4mm" y2="26.4mm" /><line x1="61.2mm" x2="73.36mm" y1="38.56mm" y2="38.56mm" /><line x1="61.2mm" x2="73.36mm" y1="71.84mm" y2="71.84mm" /><line x1="61.2mm" x2="73.36mm" y1="84.0mm" y2="84.0mm" /><line x1="73.2mm" x2="73.2mm" y1="26.4mm" y2="38.56mm" /><line x1="73.2mm" x2="73.2mm" y1="71.84mm" y2="84.0mm" /><line stroke-dasharray="6 2" x1="61.04mm" x2="61.04mm" y1="26.4mm" y2="38.56mm" /><line stroke-dasharray="6 2" x1="61.04mm" x2="61.04mm" y1="71.84mm" y2="84.0mm" /><line x1="61.2mm" x2="61.2mm" y1="12.48mm" y2="26.4mm" /><line x1="61.2mm" x2="61.2mm" y1="97.536mm" y2="84.0mm" /><line x1="61.2mm" x2="61.2mm" y1="38.56mm" y2="71.84mm" /></g><g id="scores" stroke="red"><line x1="10mm" x2="22.8mm" y1="38.56mm" y2="38.56mm" /><line x1="10mm" x2="22.8mm" y1="38.752mm" y2="38.752mm" /><line x1="10mm" x2="22.8mm" y1="38.944mm" y2="38.944mm" /><line x1="10mm" x2="22.8mm" y1="39.136mm" y2="39.136mm" /><line x1="10mm" x2="22.8mm" y1="39.328mm" y2="39.328mm" /><line x1="10mm" x2="22.8mm" y1="39.52mm" y2="39.52mm" /><line x1="10mm" x2="22.8mm" y1="39.712mm" y2="39.712mm" /><line x1="10mm" x2="22.8mm" y1="39.904mm" y2="39.904mm" /><line x1="10mm" x2="22.8mm" y1="40.096mm" y2="40.096mm" /><line x1="10mm" x2="22.8mm" y1="40.288mm" y2="40.288mm" /><line x1="10mm" x2="22.8mm" y1="40.48mm" y2="40.48mm" /><line x1="10mm" x2="22.8mm" y1="40.672mm" y2="40.672mm" /><line x1="10mm" x2="22.8mm" y1="40.864mm" y2="40.864mm" /><line x1="10mm" x2="22.8mm" y1="41.056mm" y2="41.056mm" /><line x1="10mm" x2="22.8mm" y1="41.248mm" y2="41.248mm" /><line x1="10mm" x2="22.8mm" y1="41.44mm" y2="41.44mm" /><line x1="10mm" x2="22.8mm" y1="41.632mm" y2="41.632mm" /><line x1="10mm" x2="22.8mm" y1="41.824mm" y2="41.824mm" /><line x1="10mm" x2="22.8mm" y1="42.016mm" y2="42.016mm" /><line x1="10mm" x2="22.8mm" y1="42.208mm" y2="42.208mm" /><line x1="10mm" x2="22.8mm" y1="67.808mm" y2="67.808mm" /><line x1="10mm" x2="22.8mm" y1="68.0mm" y2="68.0mm" /><line x1="10mm" x2="22.8mm" y1="68.192mm" y2="68.192mm" /><line x1="10mm" x2="22.8mm" y1="68.384mm" y2="68.384mm" /><line x1="10mm" x2="22.8mm" y1="68.576mm" y2="68.576mm" /><line x1="10mm" x2="22.8mm" y1="68.768mm" y2="68.768mm" /><line x1="10mm" x2="22.8mm" y1="68.96mm" y2="68.96mm" /><line x1="10mm" x2="22.8mm" y1="69.152mm" y2="69.152mm" /><line x1="10mm" x2="22.8mm" y1="69.344mm" y2="69.344mm" /><line x1="10mm" x2="22.8mm" y1="69.536mm" y2="69.536mm" /><line x1="10mm" x2="22.8mm" y1="69.728mm" y2="69.728mm" /><line x1="10mm" x2="22.8mm" y1="69.92mm" y2="69.92mm" /><line x1="10mm" x2="22.8mm" y1="70.112mm" y2="70.112mm" /><line x1="10mm" x2="22.8mm" y1="70.304mm" y2="70.304mm" /><line x1="10mm" x2="22.8mm" y1="70.496mm" y2="70.496mm" /><line x1="10mm" x2="22.8mm" y1="70.688mm" y2="70.688mm" /><line x1="10mm" x2="22.8mm" y1="70.88mm" y2="70.88mm" /><line x1="10mm" x2="22.8mm" y1="71.072mm" y2="71.072mm" /><line x1="10mm" x2="22.8mm" y1="71.264mm" y2="71.264mm" /><line x1="10mm" x2="22.8mm" y1="71.456mm" y2="71.456mm" /><line x1="22.8mm" x2="35.6mm" y1="38.56mm" y2="38.56mm" /><line x1="22.8mm" x2="35.6mm" y1="38.752mm" y2="38.752mm" /><line x1="22.8mm" x2="35.6mm" y1="38.944mm" y2="38.944mm" /><line x1="22.8mm" x2="35.6mm" y1="39.136mm" y2="39.136mm" /><line x1="22.8mm" x2="35.6mm" y1="39.328mm" y2="39.328mm" /><line x1="22.8mm" x2="35.6mm" y1="39.52mm" y2="39.52mm" /><line x1="22.8mm" x2="35.6mm" y1="39.712mm" y2="39.712mm" /><line x1="22.8mm" x2="35.6mm" y1="39.904mm" y2="39.904mm" /><line x1="22.8mm" x2="35.6mm" y1="40.096mm" y2="40.096mm" /><line x1="22.8mm" x2="35.6mm" y1="40.288mm" y2="40.288mm" /><line x1="22.8mm" x2="35.6mm" y1="40.48mm" y2="40.48mm" /><line x1="22.8mm" x2="35.6mm" y1="40.672mm" y2="40.672mm" /><line x1="22.8mm" x2="35.6mm" y1="40.864mm" y2="40.864mm" /><line x1="22.8mm" x2="35.6mm" y1="41.056mm" y2="41.056mm" /><line x1="22.8mm" x2="35.6mm" y1="41.248mm" y2="41.248mm" /><line x1="22.8mm" x2="35.6mm" y1="41.44mm" y2="41.44mm" /><line x1="22.8mm" x2="35.6mm" y1="41.632mm" y2="41.632mm" /><line x1="22.8mm" x2="35.6mm" y1="41.824mm" y2="41.824mm" /><line x1="22.8mm" x2="35.6mm" y1="42.016mm" y2="42.016mm" /><line x1="22.8mm" x2="35.6mm" y1="42.208mm" y2="42.208mm" /><line x1="22.8mm" x2="35.6mm" y1="67.808mm" y2="67.808mm" /><line x1="22.8mm" x2="35.6mm" y1="68.0mm" y2="68.0mm" /><line x1="22.8mm" x2="35.6mm" y1="68.192mm" y2="68.192mm" /><line x1="22.8mm" x2="35.6mm" y1="68.384mm" y2="68.384mm" /><line x1="22.8mm" x2="35.6mm" y1="68.576mm" y2="68.576mm" /><line x1="22.8mm" x2="35.6mm" y1="68.768mm" y2="68.768mm" /><line x1="22.8mm" x2="35.6mm" y1="68.96mm" y2="68.96mm" /><line x1="22.8mm" x2="35.6mm" y1="69.152mm" y2="69.152mm" /><line x1="22.8mm" x2="35.6mm" y1="69.344mm" y2="69.344mm" /><line x1="22.8mm" x2="35.6mm" y1="69.536mm" y2="69.536mm" /><line x1="22.8mm" x2="35.6mm" y1="69.728mm" y2="69.728mm" /><line x1="22.8mm" x2="35.6mm" y1="69.92mm" y2="69.92mm" /><line x1="22.8mm" x2="35.6mm" y1="70.112mm" y2="70.112mm" /><line x1="22.8mm" x2="35.6mm" y1="70.304mm" y2="70.304mm" /><line x1="22.8mm" x2="35.6mm" y1="70.496mm" y2="70.496mm" /><line x1="22.8mm" x2="35.6mm" y1="70.688mm" y2="70.688mm" /><line x1="22.8mm" x2="35.6mm" y1="70.88mm" y2="70.88mm" /><line x1="22.8mm" x2="35.6mm" y1="71.072mm" y2="71.072mm" /><line x1="22.8mm" x2="35.6mm" y1="71.264mm" y2="71.264mm" /><line x1="22.8mm" x2="35.6mm" y1="71.456mm" y2="71.456mm" /><line x1="35.6mm" x2="48.4mm" y1="38.56mm" y2="38.56mm" /><line x1="35.6mm" x2="48.4mm" y1="38.752mm" y2="38.752mm" /><line x1="35.6mm" x2="48.4mm" y1="38.944mm" y2="38.944mm" /><line x1="35.6mm" x2="48.4mm" y1="39.136mm" y2="39.136mm" /><line x1="35.6mm" x2="48.4mm" y1="39.328mm" y2="39.328mm" /><line x1="35.6mm" x2="48.4mm" y1="39.52mm" y2="39.52mm" /><line x1="35.6mm" x2="48.4mm" y1="39.712mm" y2="39.712mm" /><line x1="35.6mm" x2="48.4mm" y1="39.904mm" y2="39.904mm" /><line x1="35.6mm" x2="48.4mm" y1="40.096mm" y2="40.096mm" /><line x1="35.6mm" x2="48.4mm" y1="40.288mm" y2="40.288mm" /><line x1="35.6mm" x2="48.4mm" y1="40.48mm" y2="40.48mm" /><line x1="35.6mm" x2="48.4mm" y1="40.672mm" y2="40.672mm" /><line x1="35.6mm" x2="48.4mm" y1="40.864mm" y2="40.864mm" /><line x1="35.6mm" x2="48.4mm" y1="41.056mm" y2="41.056mm" /><line x1="35.6mm" x2="48.4mm" y1="41.248mm" y2="41.248mm" /><line x1="35.6mm" x2="48.4mm" y1="41.44mm" y2="41.44mm" /><line x1="35.6mm" x2="48.4mm" y1="41.632mm" y2="41.632mm" /><line x1="35.6mm" x2="48.4mm" y1="41.824mm" y2="41.824mm" /><line x1="35.6mm" x2="48.4mm" y1="42.016mm" y2="42.016mm" /><line x1="35.6mm" x2="48.4mm" y1="42.208mm" y2="42.208mm" /><line x1="35.6mm" x2="48.4mm" y1="67.808mm" y2="67.808mm" /><line x1="35.6mm" x2="48.4mm" y1="68.0mm" y2="68.0mm" /><line x1="35.6mm" x2="48.4mm" y1="68.192mm" y2="68.192mm" /><line x1="35.6mm" x2="48.4mm" y1="68.384mm" y2="68.384mm" /><line x1="35.6mm" x2="48.4mm" y1="68.576mm" y2="68.576mm" /><line x1="35.6mm" x2="48.4mm" y1="68.768mm" y2="68.768mm" /><line x1="35.6mm" x2="48.4mm" y1="68.96mm" y2="68.96mm" /><line x1="35.6mm" x2="48.4mm" y1="69.152mm" y2="69.152mm" /><line x1="35.6mm" x2="48.4mm" y1="69.344mm" y2="69.344mm" /><line x1="35.6mm" x2="48.4mm" y1="69.536mm" y2="69.536mm" /><line x1="35.6mm" x2="48.4mm" y1="69.728mm" y2="69.728mm" /><line x1="35.6mm" x2="48.4mm" y1="69.92mm" y2="69.92mm" /><line x1="35.6mm" x2="48.4mm" y1="70.112mm" y2="70.112mm" /><line x1="35.6mm" x2="48.4mm" y1="70.304mm" y2="70.304mm" /><line x1="35.6mm" x2="48.4mm" y1="70.496mm" y2="70.496mm" /><line x1="35.6mm" x2="48.4mm" y1="70.688mm" y2="70.688mm" /><line x1="35.6mm" x2="48.4mm" y1="70.88mm" y2="70.88mm" /><line x1="35.6mm" x2="48.4mm" y1="71.072mm" y2="71.072mm" /><line x1="35.6mm" x2="48.4mm" y1="71.264mm" y2="71.264mm" /><line x1="35.6mm" x2="48.4mm" y1="71.456mm" y2="71.456mm" /><line x1="48.4mm" x2="61.2mm" y1="38.56mm" y2="38.56mm" /><line x1="48.4mm" x2="61.2mm" y1="38.752mm" y2="38.752mm" /><line x1="48.4mm" x2="61.2mm" y1="38.944mm" y2="38.944mm" /><line x1="48.4mm" x2="61.2mm" y1="39.136mm" y2="39.136mm" /><line x1="48.4mm" x2="61.2mm" y1="39.328mm" y2="39.328mm" /><line x1="48.4mm" x2="61.2mm" y1="39.52mm" y2="39.52mm" /><line x1="48.4mm" x2="61.2mm" y1="39.712mm" y2="39.712mm" /><line x1="48.4mm" x2="61.2mm" y1="39.904mm" y2="39.904mm" /><line x1="48.4mm" x2="61.2mm" y1="40.096mm" y2="40.096mm" /><line x1="48.4mm" x2="61.2mm" y1="40.288mm" y2="40.288mm" /><line x1="48.4mm" x2="61.2mm" y1="40.48mm" y2="40.48mm" /><line x1="48.4mm" x2="61.2mm" y1="40.672mm" y2="40.672mm" /><line x1="48.4mm" x2="61.2mm" y1="40.864mm" y2="40.864mm" /><line x1="48.4mm" x2="61.2mm" y1="41.056mm" y2="41.056mm" /><line x1="48.4mm" x2="61.2mm" y1="41.248mm" y2="41.248mm" /><line x1="48.4mm" x2="61.2mm" y1="41.44mm" y2="41.44mm" /><line x1="48.4mm" x2="61.2mm" y1="41.632mm" y2="41.632mm" /><line x1="48.4mm" x2="61.2mm" y1="41.824mm" y2="41.824mm" /><line x1="48.4mm" x2="61.2mm" y1="42.016mm" y2="42.016mm" /><line x1="48.4mm" x2="61.2mm" y1="42.208mm" y2="42.208mm" /><line x1="48.4mm" x2="61.2mm" y1="67.808mm" y2="67.808mm" /><line x1="48.4mm" x2="61.2mm" y1="68.0mm" y2="68.0mm" /><line x1="48.4mm" x2="61.2mm" y1="68.192mm" y2="68.192mm" /><line x1="48.4mm" x2="61.2mm" y1="68.384mm" y2="68.384mm" /><line x1="48.4mm" x2="61.2mm" y1="68.576mm" y2="68.576mm" /><line x1="48.4mm" x2="61.2mm" y1="68.768mm" y2="68.768mm" /><line x1="48.4mm" x2="61.2mm" y1="68.96mm" y2="68.96mm" /><line x1="48.4mm" x2="61.2mm" y1="69.152mm" y2="69.152mm" /><line x1="48.4mm" x2="61.2mm" y1="69.344mm" y2="69.344mm" /><line x1="48.4mm" x2="61.2mm" y1="69.536mm" y2="69.536mm" /><line x1="48.4mm" x2="61.2mm" y1="69.728mm" y2="69.728mm" /><line x1="48.4mm" x2="61.2mm" y1="69.92mm" y2="69.92mm" /><line x1="48.4mm" x2="61.2mm" y1="70.112mm" y2="70.112mm" /><line x1="48.4mm" x2="61.2mm" y1="70.304mm" y2="70.304mm" /><line x1="48.4mm" x2="61.2mm" y1="70.496mm" y2="70.496mm" /><line x1="48.4mm" x2="61.2mm" y1="70.688mm" y2="70.688mm" /><line x1="48.4mm" x2="61.2mm" y1="70.88mm" y2="70.88mm" /><line x1="48.4mm" x2="61.2mm" y1="71.072mm" y2="71.072mm" /><line x1="48.4mm" x2="61.2mm" y1="71.264mm" y2="71.264mm" /><line x1="48.4mm" x2="61.2mm" y1="71.456mm" y2="71.456mm" /></g></svg>