<?xml version="1.0" encoding="utf-8" ?>
<svg baseProfile="full" height="100%" version="1.1" width="100%" xmlns="http://www.w3.org/2000/svg" xmlns:ev="http://www.w3.org/2001/xml-events" xmlns:xlink="http://www.w3.org/1999/xlink"><defs /><g id="cuts" stroke="black"><line x1="10mm" x2="50mm" y1="0.5mm" y2="0.5mm" /><line x1="10mm" x2="50mm" y1="343.3mm" y2="343.3mm" /><line stroke-dasharray="6 2" x1="10mm" x2="50mm" y1="40.5mm" y2="40.5mm" /><line stroke-dasharray="6 2" x1="10mm" x2="50mm" y1="303.3mm" y2="303.3mm" /><line stroke-dasharray="6 2" x1="10mm" x2="50mm" y1="80.5mm" y2="80.5mm" /><line stroke-dasharray="6 2" x1="10mm" x2="50mm" y1="171.9mm" y2="171.9mm" /><line stroke-dasharray="6 2" x1="10mm" x2="50mm" y1="263.3mm" y2="263.3mm" /><line x1="10mm" x2="10mm" y1="0.5mm" y2="343.3mm" /><line x1="50mm" x2="50mm" y1="303.3mm" y2="343.3mm" /><line x1="50mm" x2="50mm" y1="40.5mm" y2="0.5mm" /><line x1="12.5mm" x2="47.5mm" y1="131.9mm" y2="131.9mm" /><line x1="12.5mm" x2="47.5mm" y1="120.5mm" y2="120.5mm" /><line x1="12.5mm" x2="12.5mm" y1="131.9mm" y2="120.5mm" /><line x1="47.5mm" x2="47.5mm" y1="131.9mm" y2="120.5mm" /><line x1="12.5mm" x2="47.5mm" y1="223.3mm" y2="223.3mm" /><line x1="12.5mm" x2="47.5mm" y1="211.9mm" y2="211.9mm" /><line x1="12.5mm" x2="12.5mm" y1="223.3mm" y2="211.9mm" /><line x1="47.5mm" x2="47.5mm" y1="223.3mm" y2="211.9mm" /><line x1="50mm" x2="90mm" y1="40.0mm" y2="40.0mm" /><line x1="50mm" x2="90mm" y1="303.8mm" y2="303.8mm" /><line stroke-dasharray="6 2" x1="50mm" x2="90mm" y1="80.0mm" y2="80.0mm" /><line stroke-dasharray="6 2" x1="50mm" x2="90mm" y1="171.9mm" y2="171.9mm" /><line stroke-dasharray="6 2" x1="50mm" x2="90mm" y1="263.8mm" y2="263.8mm" /><line stroke-dasharray="6 2" x1="50mm" x2="50mm" y1="80.0mm" y2="120.5mm" /><line x1="50mm" x2="50mm" y1="120.5mm" y2="223.3mm" /><line stroke-dasharray="6 2" x1="50mm" x2="50mm" y1="223.3mm" y2="263.8mm" /><line x1="50mm" x2="50mm" y1="40.0mm" y2="80.0mm" /><line x1="50mm" x2="50mm" y1="263.8mm" y2="303.8mm" /><line x1="52.5mm" x2="87.5mm" y1="131.9mm" y2="131.9mm" /><line x1="52.5mm" x2="87.5mm" y1="120.5mm" y2="120.5mm" /><line x1="52.5mm" x2="52.5mm" y1="131.9mm" y2="120.5mm" /><line x1="87.5mm" x2="87.5mm" y1="131.9mm" y2="120.5mm" /><line x1="52.5mm" x2="87.5mm" y1="223.3mm" y2="223.3mm" /><line x1="52.5mm" x2="87.5mm" y1="211.9mm" y2="211.9mm" /><line x1="52.5mm" x2="52.5mm" y1="223.3mm" y2="211.9mm" /><line x1="87.5mm" x2="87.5mm" y1="223.3mm" y2="211.9mm" /><line x1="90mm" x2="130mm" y1="39.5mm" y2="39.5mm" /><line x1="90mm" x2="130mm" y1="304.3mm" y2="304.3mm" /><line stroke-dasharray="6 2" x1="90mm" x2="130mm" y1="79.5mm" y2="79.5mm" /><line stroke-dasharray="6 2" x1="90mm" x2="130mm" y1="171.9mm" y2="171.9mm" /><line stroke-dasharray="6 2" x1="90mm" x2="130mm" y1="264.3mm" y2="264.3mm" /><line stroke-dasharray="6 2" x1="90mm" x2="90mm" y1="79.5mm" y2="120.5mm" /><line x1="90mm" x2="90mm" y1="120.5mm" y2="223.3mm" /><line stroke-dasharray="6 2" x1="90mm" x2="90mm" y1="223.3mm" y2="264.3mm" /><line x1="90mm" x2="90mm" y1="39.5mm" y2="79.5mm" /><line x1="90mm" x2="90mm" y1="264.3mm" y2="304.3mm" /><line x1="92.5mm" x2="127.5mm" y1="131.9mm" y2="131.9mm" /><line x1="92.5mm" x2="127.5mm" y1="120.5mm" y2="120.5mm" /><line x1="92.5mm" x2="92.5mm" y1="131.9mm" y2="120.5mm" /><line x1="127.5mm" x2="127.5mm" y1="131.9mm" y2="120.5mm" /><line x1="92.5mm" x2="127.5mm" y1="223.3mm" y2="223.3mm" /><line x1="92.5mm" x2="127.5mm" y1="211.9mm" y2="211.9mm" /><line x1="92.5mm" x2="92.5mm" y1="223.3mm" y2="211.9mm" /><line x1="127.5mm" x2="127.5mm" y1="223.3mm" y2="211.9mm" /><line x1="130mm" x2="170mm" y1="39.0mm" y2="39.0mm" /><line x1="130mm" x2="170mm" y1="304.8mm" y2="304.8mm" /><line stroke-dasharray="6 2" x1="130mm" x2="170mm" y1="79.0mm" y2="79.0mm" /><line stroke-dasharray="6 2" x1="130mm" x2="170mm" y1="171.9mm" y2="171.9mm" /><line stroke-dasharray="6 2" x1="130mm" x2="170mm" y1="264.8mm" y2="264.8mm" /><line stroke-dasharray="6 2" x1="130mm" x2="130mm" y1="79.0mm" y2="120.5mm" /><line x1="130mm" x2="130mm" y1="120.5mm" y2="223.3mm" /><line stroke-dasharray="6 2" x1="130mm" x2="130mm" y1="223.3mm" y2="264.8mm" /><line x1="130mm" x2="130mm" y1="39.0mm" y2="79.0mm" /><line x1="130mm" x2="130mm" y1="264.8mm" y2="304.8mm" /><line x1="132.5mm" x2="167.5mm" y1="131.9mm" y2="131.9mm" /><line x1="132.5mm" x2="167.5mm" y1="120.5mm" y2="120.5mm" /><line x1="132.5mm" x2="132.5mm" y1="131.9mm" y2="120.5mm" /><line x1="167.5mm" x2="167.5mm" y1="131.9mm" y2="120.5mm" /><line x1="132.5mm" x2="167.5mm" y1="223.3mm" y2="223.3mm" /><line x1="132.5mm" x2="167.5mm" y1="211.9mm" y2="211.9mm" /><line x1="132.5mm" x2="132.5mm" y1="223.3mm" y2="211.9mm" /><line x1="167.5mm" x2="167.5mm" y1="223.3mm" y2="211.9mm" /><line x1="170mm" x2="208.0mm" y1="82.5mm" y2="82.5mm" /><line x1="170mm" x2="208.0mm" y1="120.5mm" y2="120.5mm" /><line x1="170mm" x2="208.0mm" y1="224.5mm" y2="224.5mm" /><line x1="170mm" x2="208.0mm" y1="262.5mm" y2="262.5mm" /><line x1="207.5mm" x2="207.5mm" y1="82.5mm" y2="120.5mm" /><line x1="207.5mm" x2="207.5mm" y1="224.5mm" y2="262.5mm" /><line stroke-dasharray="6 2" x1="169.5mm" x2="169.5mm" y1="82.5mm" y2="120.5mm" /><line stroke-dasharray="6 2" x1="169.5mm" x2="169.5mm" y1="224.5mm" y2="262.5mm" /><line x1="170mm" x2="170mm" y1="39.0mm" y2="82.5mm" /><line x1="170mm" x2="170mm" y1="304.8mm" y2="262.5mm" /><line x1="170mm" x2="170mm" y1="120.5mm" y2="224.5mm" /></g><g id="scores" stroke="red"><line x1="10mm" x2="50mm" y1="120.5mm" y2="120.5mm" /><line x1="10mm" x2="50mm" y1="121.1mm" y2="121.1mm" /><line x1="10mm" x2="50mm" y1="121.7mm" y2="121.7mm" /><line x1="10mm" x2="50mm" y1="122.3mm" y2="122.3mm" /><line x1="10mm" x2="50mm" y1="122.9mm" y2="122.9mm" /><line x1="10mm" x2="50mm" y1="123.5mm" y2="123.5mm" /><line x1="10mm" x2="50mm" y1="124.1mm" y2="124.1mm" /><line x1="10mm" x2="50mm" y1="124.7mm" y2="124.7mm" /><line x1="10mm" x2="50mm" y1="125.3mm" y2="125.3mm" /><line x1="10mm" x2="50mm" y1="125.9mm" y2="125.9mm" /><line x1="10mm" x2="50mm" y1="126.5mm" y2="126.5mm" /><line x1="10mm" x2="50mm" y1="127.1mm" y2="127.1mm" /><line x1="10mm" x2="50mm" y1="127.7mm" y2="127.7mm" /><line x1="10mm" x2="50mm" y1="128.3mm" y2="128.3mm" /><line x1="10mm" x2="50mm" y1="128.9mm" y2="128.9mm" /><line x1="10mm" x2="50mm" y1="129.5mm" y2="129.5mm" /><line x1="10mm" x2="50mm" y1="130.1mm" y2="130.1mm" /><line x1="10mm" x2="50mm" y1="130.7mm" y2="130.7mm" /><line x1="10mm" x2="50mm" y1="131.3mm" y2="131.3mm" /><line x1="10mm" x2="50mm" y1="131.9mm" y2="131.9mm" /><line x1="10mm" x2="50mm" y1="211.9mm" y2="211.9mm" /><line x1="10mm" x2="50mm" y1="212.5mm" y2="212.5mm" /><line x1="10mm" x2="50mm" y1="213.1mm" y2="213.1mm" /><line x1="10mm" x2="50mm" y1="213.7mm" y2="213.7mm" /><line x1="10mm" x2="50mm" y1="214.3mm" y2="214.3mm" /><line x1="10mm" x2="50mm" y1="214.9mm" y2="214.9mm" /><line x1="10mm" x2="50mm" y1="215.5mm" y2="215.5mm" /><line x1="10mm" x2="50mm" y1="216.1mm" y2="216.1mm" /><line x1="10mm" x2="50mm" y1="216.7mm" y2="216.7mm" /><line x1="10mm" x2="50mm" y1="217.3mm" y2="217.3mm" /><line x1="10mm" x2="50mm" y1="217.9mm" y2="217.9mm" /><line x1="10mm" x2="50mm" y1="218.5mm" y2="218.5mm" /><line x1="10mm" x2="50mm" y1="219.1mm" y2="219.1mm" /><line x1="10mm" x2="50mm" y1="219.7mm" y2="219.7mm" /><line x1="10mm" x2="50mm" y1="220.3mm" y2="220.3mm" /><line x1="10mm" x2="50mm" y1="220.9mm" y2="220.9mm" /><line x1="10mm" x2="50mm" y1="221.5mm" y2="221.5mm" /><line x1="10mm" x2="50mm" y1="222.1mm" y2="222.1mm" /><line x1="10mm" x2="50mm" y1="222.7mm" y2="222.7mm" /><line x1="10mm" x2="50mm" y1="223.3mm" y2="223.3mm" /><line x1="50mm" x2="90mm" y1="120.5mm" y2="120.5mm" /><line x1="50mm" x2="90mm" y1="121.1mm" y2="121.1mm" /><line x1="50mm" x2="90mm" y1="121.7mm" y2="121.7mm" /><line x1="50mm" x2="90mm" y1="122.3mm" y2="122.3mm" /><line x1="50mm" x2="90mm" y1="122.9mm" y2="122.9mm" /><line x1="50mm" x2="90mm" y1="123.5mm" y2="123.5mm" /><line x1="50mm" x2="90mm" y1="124.1mm" y2="124.1mm" /><line x1="50mm" x2="90mm" y1="124.7mm" y2="124.7mm" /><line x1="50mm" x2="90mm" y1="125.3mm" y2="125.3mm" /><line x1="50mm" x2="90mm" y1="125.9mm" y2="125.9mm" /><line x1="50mm" x2="90mm" y1="126.5mm" y2="126.5mm" /><line x1="50mm" x2="90mm" y1="127.1mm" y2="127.1mm" /><line x1="50mm" x2="90mm" y1="127.7mm" y2="127.7mm" /><line x1="50mm" x2="90mm" y1="128.3mm" y2="128.3mm" /><line x1="50mm" x2="90mm" y1="128.9mm" y2="128.9mm" /><line x1="50mm" x2="90mm" y1="129.5mm" y2="129.5mm" /><line x1="50mm" x2="90mm" y1="130.1mm" y2="130.1mm" /><line x1="50mm" x2="90mm" y1="130.7mm" y2="130.7mm" /><line x1="50mm" x2="90mm" y1="131.3mm" y2="131.3mm" /><line x1="50mm" x2="90mm" y1="131.9mm" y2="131.9mm" /><line x1="50mm" x2="90mm" y1="211.9mm" y2="211.9mm" /><line x1="50mm" x2="90mm" y1="212.5mm" y2="212.5mm" /><line x1="50mm" x2="90mm" y1="213.1mm" y2="213.1mm" /><line x1="50mm" x2="90mm" y1="213.7mm" y2="213.7mm" /><line x1="50mm" x2="90mm" y1="214.3mm" y2="214.3mm" /><line x1="50mm" x2="90mm" y1="214.9mm" y2="214.9mm" /><line x1="50mm" x2="90mm" y1="215.5mm" y2="215.5mm" /><line x1="50mm" x2="90mm" y1="216.1mm" y2="216.1mm" /><line x1="50mm" x2="90mm" y1="216.7mm" y2="216.7mm" /><line x1="50mm" x2="90mm" y1="217.3mm" y2="217.3mm" /><line x1="50mm" x2="90mm" y1="217.9mm" y2="217.9mm" /><line x1="50mm" x2="90mm" y1="218.5mm" y2="218.5mm" /><line x1="50mm" x2="90mm" y1="219.1mm" y2="219.1mm" /><line x1="50mm" x2="90mm" y1="219.7mm" y2="219.7mm" /><line x1="50mm" x2="90mm" y1="220.3mm" y2="220.3mm" /><line x1="50mm" x2="90mm" y1="220.9mm" y2="220.9mm" /><line x1="50mm" x2="90mm" y1="221.5mm" y2="221.5mm" /><line x1="50mm" x2="90mm" y1="222.1mm" y2="222.1mm" /><line x1="50mm" x2="90mm" y1="222.7mm" y2="222.7mm" /><line x1="50mm" x2="90mm" y1="223.3mm" y2="223.3mm" /><line x1="90mm" x2="130mm" y1="120.5mm" y2="120.5mm" /><line x1="90mm" x2="130mm" y1="121.1mm" y2="121.1mm" /><line x1="90mm" x2="130mm" y1="121.7mm" y2="121.7mm" /><line x1="90mm" x2="130mm" y1="122.3mm" y2="122.3mm" /><line x1="90mm" x2="130mm" y1="122.9mm" y2="122.9mm" /><line x1="90mm" x2="130mm" y1="123.5mm" y2="123.5mm" /><line x1="90mm" x2="130mm" y1="124.1mm" y2="124.1mm" /><line x1="90mm" x2="130mm" y1="124.7mm" y2="124.7mm" /><line x1="90mm" x2="130mm" y1="125.3mm" y2="125.3mm" /><line x1="90mm" x2="130mm" y1="125.9mm" y2="125.9mm" /><line x1="90mm" x2="130mm" y1="126.5mm" y2="126.5mm" /><line x1="90mm" x2="130mm" y1="127.1mm" y2="127.1mm" /><line x1="90mm" x2="130mm" y1="127.7mm" y2="127.7mm" /><line x1="90mm" x2="130mm" y1="128.3mm" y2="128.3mm" /><line x1="90mm" x2="130mm" y1="128.9mm" y2="128.9mm" /><line x1="90mm" x2="130mm" y1="129.5mm" y2="129.5mm" /><line x1="90mm" x2="130mm" y1="130.1mm" y2="130.1mm" /><line x1="90mm" x2="130mm" y1="130.7mm" y2="130.7mm" /><line x1="90mm" x2="130mm" y1="131.3mm" y2="131.3mm" /><line x1="90mm" x2="130mm" y1="131.9mm" y2="131.9mm" /><line x1="90mm" x2="130mm" y1="211.9mm" y2="211.9mm" /><line x1="90mm" x2="130mm" y1="212.5mm" y2="212.5mm" /><line x1="90mm" x2="130mm" y1="213.1mm" y2="213.1mm" /><line x1="90mm" x2="130mm" y1="213.7mm" y2="213.7mm" /><line x1="90mm" x2="130mm" y1="214.3mm" y2="214.3mm" /><line x1="90mm" x2="130mm" y1="214.9mm" y2="214.9mm" /><line x1="90mm" x2="130mm" y1="215.5mm" y2="215.5mm" /><line x1="90mm" x2="130mm" y1="216.1mm" y2="216.1mm" /><line x1="90mm" x2="130mm" y1="216.7mm" y2="216.7mm" /><line x1="90mm" x2="130mm" y1="217.3mm" y2="217.3mm" /><line x1="90mm" x2="130mm" y1="217.9mm" y2="217.9mm" /><line x1="90mm" x2="130mm" y1="218.5mm" y2="218.5mm" /><line x1="90mm" x2="130mm" y1="219.1mm" y2="219.1mm" /><line x1="90mm" x2="130mm" y1="219.7mm" y2="219.7mm" /><line x1="90mm" x2="130mm" y1="220.3mm" y2="220.3mm" /><line x1="90mm" x2="130mm" y1="220.9mm" y2="220.9mm" /><line x1="90mm" x2="130mm" y1="221.5mm" y2="221.5mm" /><line x1="90mm" x2="130mm" y1="222.1mm" y2="222.1mm" /><line x1="90mm" x2="130mm" y1="222.7mm" y2="222.7mm" /><line x1="90mm" x2="130mm" y1="223.3mm" y2="223.3mm" /><line x1="130mm" x2="170mm" y1="120.5mm" y2="120.5mm" /><line x1="130mm" x2="170mm" y1="121.1mm" y2="121.1mm" /><line x1="130mm" x2="170mm" y1="121.7mm" y2="121.7mm" /><line x1="130mm" x2="170mm" y1="122.3mm" y2="122.3mm" /><line x1="130mm" x2="170mm" y1="122.9mm" y2="122.9mm" /><line x1="130mm" x2="170mm" y1="123.5mm" y2="123.5mm" /><line x1="130mm" x2="170mm" y1="124.1mm" y2="124.1mm" /><line x1="130mm" x2="170mm" y1="124.7mm" y2="124.7mm" /><line x1="130mm" x2="170mm" y1="125.3mm" y2="125.3mm" /><line x1="130mm" x2="170mm" y1="125.9mm" y2="125.9mm" /><line x1="130mm" x2="170mm" y1="126.5mm" y2="126.5mm" /><line x1="130mm" x2="170mm" y1="127.1mm" y2="127.1mm" /><line x1="130mm" x2="170mm" y1="127.7mm" y2="127.7mm" /><line x1="130mm" x2="170mm" y1="128.3mm" y2="128.3mm" /><line x1="130mm" x2="170mm" y1="128.9mm" y2="128.9mm" /><line x1="130mm" x2="170mm" y1="129.5mm" y2="129.5mm" /><line x1="130mm" x2="170mm" y1="130.1mm" y2="130.1mm" /><line x1="130mm" x2="170mm" y1="130.7mm" y2="130.7mm" /><line x1="130mm" x2="170mm" y1="131.3mm" y2="131.3mm" /><line x1="130mm" x2="170mm" y1="131.9mm" y2="131.9mm" /><line x1="130mm" x2="170mm" y1="211.9mm" y2="211.9mm" /><line x1="130mm" x2="170mm" y1="212.5mm" y2="212.5mm" /><line x1="130mm" x2="170mm" y1="213.1mm" y2="213.1mm" /><line x1="130mm" x2="170mm" y1="213.7mm" y2="213.7mm" /><line x1="130mm" x2="170mm" y1="214.3mm" y2="214.3mm" /><line x1="130mm" x2="170mm" y1="214.9mm" y2="214.9mm" /><line x1="130mm" x2="170mm" y1="215.5mm" y2="215.5mm" /><line x1="130mm" x2="170mm" y1="216.1mm" y2="216.1mm" /><line x1="130mm" x2="170mm" y1="216.7mm" y2="216.7mm" /><line x1="130mm" x2="170mm" y1="217.3mm" y2="217.3mm" /><line x1="130mm" x2="170mm" y1="217.9mm" y2="217.9mm" /><line x1="130mm" x2="170mm" y1="218.5mm" y2="218.5mm" /><line x1="130mm" x2="170mm" y1="219.1mm" y2="219.1mm" /><line x1="130mm" x2="170mm" y1="219.7mm" y2="219.7mm" /><line x1="130mm" x2="170mm" y1="220.3mm" y2="220.3mm" /><line x1="130mm" x2="170mm" y1="220.9mm" y2="220.9mm" /><line x1="130mm" x2="170mm" y1="221.5mm" y2="221.5mm" /><line x1="130mm" x2="170mm" y1="222.1mm" y2="222.1mm" /><line x1="130mm" x2="170mm" y1="222.7mm" y2="222.7mm" /><line x1="130mm" x2="170mm" y1="223.3mm" y2="223.3mm" /></g></svg>