<?xml version="1.0" encoding="utf-8" ?>
<svg baseProfile="full" height="100%" version="1.1" width="100%" xmlns="http://www.w3.org/2000/svg" xmlns:ev="http://www.w3.org/2001/xml-events" xmlns:xlink="http://www.w3.org/1999/xlink"><defs /><g id="cuts" stroke="black"><line x1="0mm" x2="40mm" y1="0.0mm" y2="0.0mm" /><line x1="0mm" x2="40mm" y1="249.0mm" y2="249.0mm" /><line x1="0mm" x2="0mm" y1="0.0mm" y2="249.0mm" /><line x1="2.0mm" x2="38.0mm" y1="84.5mm" y2="84.5mm" /><line x1="2.0mm" x2="38.0mm" y1="80mm" y2="80mm" /><line x1="2.0mm" x2="2.0mm" y1="84.5mm" y2="80mm" /><line x1="38.0mm" x2="38.0mm" y1="84.5mm" y2="80mm" /><line x1="2.0mm" x2="38.0mm" y1="169.0mm" y2="169.0mm" /><line x1="2.0mm" x2="38.0mm" y1="164.5mm" y2="164.5mm" /><line x1="2.0mm" x2="2.0mm" y1="169.0mm" y2="164.5mm" /><line x1="38.0mm" x2="38.0mm" y1="169.0mm" y2="164.5mm" /><line x1="40mm" x2="80mm" y1="0.5mm" y2="0.5mm" /><line x1="40mm" x2="80mm" y1="249.5mm" y2="249.5mm" /><line x1="40mm" x2="40mm" y1="80mm" y2="169.0mm" /><line x1="40mm" x2="40mm" y1="0.5mm" y2="40.5mm" /><line x1="40mm" x2="40mm" y1="209.5mm" y2="249.5mm" /><line x1="42.0mm" x2="78.0mm" y1="84.5mm" y2="84.5mm" /><line x1="42.0mm" x2="78.0mm" y1="80mm" y2="80mm" /><line x1="42.0mm" x2="42.0mm" y1="84.5mm" y2="80mm" /><line x1="78.0mm" x2="78.0mm" y1="84.5mm" y2="80mm" /><line x1="42.0mm" x2="78.0mm" y1="169.0mm" y2="169.0mm" /><line x1="42.0mm" x2="78.0mm" y1="164.5mm" y2="164.5mm" /><line x1="42.0mm" x2="42.0mm" y1="169.0mm" y2="164.5mm" /><line x1="78.0mm" x2="78.0mm" y1="169.0mm" y2="164.5mm" /><line x1="80mm" x2="120mm" y1="1.0mm" y2="1.0mm" /><line x1="80mm" x2="120mm" y1="250.0mm" y2="250.0mm" /><line x1="80mm" x2="80mm" y1="80mm" y2="169.0mm" /><line x1="80mm" x2="80mm" y1="1.0mm" y2="41.0mm" /><line x1="80mm" x2="80mm" y1="210.0mm" y2="250.0mm" /><line x1="82.0mm" x2="118.0mm" y1="84.5mm" y2="84.5mm" /><line x1="82.0mm" x2="118.0mm" y1="80mm" y2="80mm" /><line x1="82.0mm" x2="82.0mm" y1="84.5mm" y2="80mm" /><line x1="118.0mm" x2="118.0mm" y1="84.5mm" y2="80mm" /><line x1="82.0mm" x2="118.0mm" y1="169.0mm" y2="169.0mm" /><line x1="82.0mm" x2="118.0mm" y1="164.5mm" y2="164.5mm" /><line x1="82.0mm" x2="82.0mm" y1="169.0mm" y2="164.5mm" /><line x1="118.0mm" x2="118.0mm" y1="169.0mm" y2="164.5mm" /><line x1="120mm" x2="160mm" y1="1.5mm" y2="1.5mm" /><line x1="120mm" x2="160mm" y1="250.5mm" y2="250.5mm" /><line x1="120mm" x2="120mm" y1="80mm" y2="169.0mm" /><line x1="120mm" x2="120mm" y1="1.5mm" y2="41.5mm" /><line x1="120mm" x2="120mm" y1="210.5mm" y2="250.5mm" /><line x1="122.0mm" x2="158.0mm" y1="84.5mm" y2="84.5mm" /><line x1="122.0mm" x2="158.0mm" y1="80mm" y2="80mm" /><line x1="122.0mm" x2="122.0mm" y1="84.5mm" y2="80mm" /><line x1="158.0mm" x2="158.0mm" y1="84.5mm" y2="80mm" /><line x1="122.0mm" x2="158.0mm" y1="169.0mm" y2="169.0mm" /><line x1="122.0mm" x2="158.0mm" y1="164.5mm" y2="164.5mm" /><line x1="122.0mm" x2="122.0mm" y1="169.0mm" y2="164.5mm" /><line x1="158.0mm" x2="158.0mm" y1="169.0mm" y2="164.5mm" /><line x1="160mm" x2="198.0mm" y1="42.0mm" y2="42.0mm" /><line x1="160mm" x2="198.0mm" y1="80mm" y2="80mm" /><line x1="160mm" x2="198.0mm" y1="170.0mm" y2="170.0mm" /><line x1="160mm" x2="198.0mm" y1="208.0mm" y2="208.0mm" /><line x1="198.0mm" x2="198.0mm" y1="42.0mm" y2="80mm" /><line x1="198.0mm" x2="198.0mm" y1="170.0mm" y2="208.0mm" /><line x1="160mm" x2="160mm" y1="1.5mm" y2="42.0mm" /><line x1="160mm" x2="160mm" y1="250.5mm" y2="208.0mm" /><line x1="160mm" x2="160mm" y1="80mm" y2="170.0mm" /></g><g id="scores" stroke="red"><line x1="0mm" x2="40mm" y1="40.0mm" y2="40.0mm" /><line x1="0mm" x2="40mm" y1="124.5mm" y2="124.5mm" /><line x1="0mm" x2="40mm" y1="209.0mm" y2="209.0mm" /><line x1="0mm" x2="40mm" y1="80.0mm" y2="80.0mm" /><line x1="0mm" x2="40mm" y1="80.5mm" y2="80.5mm" /><line x1="0mm" x2="40mm" y1="81.0mm" y2="81.0mm" /><line x1="0mm" x2="40mm" y1="81.5mm" y2="81.5mm" /><line x1="0mm" x2="40mm" y1="82.0mm" y2="82.0mm" /><line x1="0mm" x2="40mm" y1="82.5mm" y2="82.5mm" /><line x1="0mm" x2="40mm" y1="83.0mm" y2="83.0mm" /><line x1="0mm" x2="40mm" y1="83.5mm" y2="83.5mm" /><line x1="0mm" x2="40mm" y1="84.0mm" y2="84.0mm" /><line x1="0mm" x2="40mm" y1="84.5mm" y2="84.5mm" /><line x1="0mm" x2="40mm" y1="164.5mm" y2="164.5mm" /><line x1="0mm" x2="40mm" y1="165.0mm" y2="165.0mm" /><line x1="0mm" x2="40mm" y1="165.5mm" y2="165.5mm" /><line x1="0mm" x2="40mm" y1="166.0mm" y2="166.0mm" /><line x1="0mm" x2="40mm" y1="166.5mm" y2="166.5mm" /><line x1="0mm" x2="40mm" y1="167.0mm" y2="167.0mm" /><line x1="0mm" x2="40mm" y1="167.5mm" y2="167.5mm" /><line x1="0mm" x2="40mm" y1="168.0mm" y2="168.0mm" /><line x1="0mm" x2="40mm" y1="168.5mm" y2="168.5mm" /><line x1="0mm" x2="40mm" y1="169.0mm" y2="169.0mm" /><line x1="40mm" x2="80mm" y1="40.5mm" y2="40.5mm" /><line x1="40mm" x2="80mm" y1="124.5mm" y2="124.5mm" /><line x1="40mm" x2="80mm" y1="209.5mm" y2="209.5mm" /><line x1="40mm" x2="80mm" y1="80.0mm" y2="80.0mm" /><line x1="40mm" x2="80mm" y1="80.5mm" y2="80.5mm" /><line x1="40mm" x2="80mm" y1="81.0mm" y2="81.0mm" /><line x1="40mm" x2="80mm" y1="81.5mm" y2="81.5mm" /><line x1="40mm" x2="80mm" y1="82.0mm" y2="82.0mm" /><line x1="40mm" x2="80mm" y1="82.5mm" y2="82.5mm" /><line x1="40mm" x2="80mm" y1="83.0mm" y2="83.0mm" /><line x1="40mm" x2="80mm" y1="83.5mm" y2="83.5mm" /><line x1="40mm" x2="80mm" y1="84.0mm" y2="84.0mm" /><line x1="40mm" x2="80mm" y1="84.5mm" y2="84.5mm" /><line x1="40mm" x2="80mm" y1="164.5mm" y2="164.5mm" /><line x1="40mm" x2="80mm" y1="165.0mm" y2="165.0mm" /><line x1="40mm" x2="80mm" y1="165.5mm" y2="165.5mm" /><line x1="40mm" x2="80mm" y1="166.0mm" y2="166.0mm" /><line x1="40mm" x2="80mm" y1="166.5mm" y2="166.5mm" /><line x1="40mm" x2="80mm" y1="167.0mm" y2="167.0mm" /><line x1="40mm" x2="80mm" y1="167.5mm" y2="167.5mm" /><line x1="40mm" x2="80mm" y1="168.0mm" y2="168.0mm" /><line x1="40mm" x2="80mm" y1="168.5mm" y2="168.5mm" /><line x1="40mm" x2="80mm" y1="169.0mm" y2="169.0mm" /><line x1="40mm" x2="40mm" y1="40.5mm" y2="80mm" /><line x1="40mm" x2="40mm" y1="169.0mm" y2="209.5mm" /><line x1="80mm" x2="120mm" y1="41.0mm" y2="41.0mm" /><line x1="80mm" x2="120mm" y1="124.5mm" y2="124.5mm" /><line x1="80mm" x2="120mm" y1="210.0mm" y2="210.0mm" /><line x1="80mm" x2="120mm" y1="80.0mm" y2="80.0mm" /><line x1="80mm" x2="120mm" y1="80.5mm" y2="80.5mm" /><line x1="80mm" x2="120mm" y1="81.0mm" y2="81.0mm" /><line x1="80mm" x2="120mm" y1="81.5mm" y2="81.5mm" /><line x1="80mm" x2="120mm" y1="82.0mm" y2="82.0mm" /><line x1="80mm" x2="120mm" y1="82.5mm" y2="82.5mm" /><line x1="80mm" x2="120mm" y1="83.0mm" y2="83.0mm" /><line x1="80mm" x2="120mm" y1="83.5mm" y2="83.5mm" /><line x1="80mm" x2="120mm" y1="84.0mm" y2="84.0mm" /><line x1="80mm" x2="120mm" y1="84.5mm" y2="84.5mm" /><line x1="80mm" x2="120mm" y1="164.5mm" y2="164.5mm" /><line x1="80mm" x2="120mm" y1="165.0mm" y2="165.0mm" /><line x1="80mm" x2="120mm" y1="165.5mm" y2="165.5mm" /><line x1="80mm" x2="120mm" y1="166.0mm" y2="166.0mm" /><line x1="80mm" x2="120mm" y1="166.5mm" y2="166.5mm" /><line x1="80mm" x2="120mm" y1="167.0mm" y2="167.0mm" /><line x1="80mm" x2="120mm" y1="167.5mm" y2="167.5mm" /><line x1="80mm" x2="120mm" y1="168.0mm" y2="168.0mm" /><line x1="80mm" x2="120mm" y1="168.5mm" y2="168.5mm" /><line x1="80mm" x2="120mm" y1="169.0mm" y2="169.0mm" /><line x1="80mm" x2="80mm" y1="41.0mm" y2="80mm" /><line x1="80mm" x2="80mm" y1="169.0mm" y2="210.0mm" /><line x1="120mm" x2="160mm" y1="41.5mm" y2="41.5mm" /><line x1="120mm" x2="160mm" y1="124.5mm" y2="124.5mm" /><line x1="120mm" x2="160mm" y1="210.5mm" y2="210.5mm" /><line x1="120mm" x2="160mm" y1="80.0mm" y2="80.0mm" /><line x1="120mm" x2="160mm" y1="80.5mm" y2="80.5mm" /><line x1="120mm" x2="160mm" y1="81.0mm" y2="81.0mm" /><line x1="120mm" x2="160mm" y1="81.5mm" y2="81.5mm" /><line x1="120mm" x2="160mm" y1="82.0mm" y2="82.0mm" /><line x1="120mm" x2="160mm" y1="82.5mm" y2="82.5mm" /><line x1="120mm" x2="160mm" y1="83.0mm" y2="83.0mm" /><line x1="120mm" x2="160mm" y1="83.5mm" y2="83.5mm" /><line x1="120mm" x2="160mm" y1="84.0mm" y2="84.0mm" /><line x1="120mm" x2="160mm" y1="84.5mm" y2="84.5mm" /><line x1="120mm" x2="160mm" y1="164.5mm" y2="164.5mm" /><line x1="120mm" x2="160mm" y1="165.0mm" y2="165.0mm" /><line x1="120mm" x2="160mm" y1="165.5mm" y2="165.5mm" /><line x1="120mm" x2="160mm" y1="166.0mm" y2="166.0mm" /><line x1="120mm" x2="160mm" y1="166.5mm" y2="166.5mm" /><line x1="120mm" x2="160mm" y1="167.0mm" y2="167.0mm" /><line x1="120mm" x2="160mm" y1="167.5mm" y2="167.5mm" /><line x1="120mm" x2="160mm" y1="168.0mm" y2="168.0mm" /><line x1="120mm" x2="160mm" y1="168.5mm" y2="168.5mm" /><line x1="120mm" x2="160mm" y1="169.0mm" y2="169.0mm" /><line x1="120mm" x2="120mm" y1="41.5mm" y2="80mm" /><line x1="120mm" x2="120mm" y1="169.0mm" y2="210.5mm" /><line x1="160mm" x2="160mm" y1="42.0mm" y2="80mm" /><line x1="160mm" x2="160mm" y1="170.0mm" y2="208.0mm" /></g></svg>