<?xml version="1.0" encoding="utf-8" ?>
<svg baseProfile="full" height="100%" version="1.1" width="100%" xmlns="http://www.w3.org/2000/svg" xmlns:ev="http://www.w3.org/2001/xml-events" xmlns:xlink="http://www.w3.org/1999/xlink"><defs /><g id="cuts" stroke="black"><line x1="10mm" x2="23.12mm" y1="26.4mm" y2="26.4mm" /><line x1="10mm" x2="23.12mm" y1="99.296mm" y2="99.296mm" /><line stroke-dasharray="6 2" x1="10mm" x2="23.12mm" y1="56.288mm" y2="56.288mm" /><line stroke-dasharray="6 2" x1="10mm" x2="23.12mm" y1="86.176mm" y2="86.176mm" /><line x1="10mm" x2="10mm" y1="26.4mm" y2="99.296mm" /><line x1="14.3296mm" x2="18.7904mm" y1="43.168mm" y2="43.168mm" /><line x1="14.3296mm" x2="18.7904mm" y1="39.52mm" y2="39.52mm" /><line x1="14.3296mm" x2="14.3296mm" y1="43.168mm" y2="39.52mm" /><line x1="18.7904mm" x2="18.7904mm" y1="43.168mm" y2="39.52mm" /><line x1="14.3296mm" x2="18.7904mm" y1="73.056mm" y2="73.056mm" /><line x1="14.3296mm" x2="18.7904mm" y1="69.408mm" y2="69.408mm" /><line x1="14.3296mm" x2="14.3296mm" y1="73.056mm" y2="69.408mm" /><line x1="18.7904mm" x2="18.7904mm" y1="73.056mm" y2="69.408mm" /><line x1="23.12mm" x2="36.24mm" y1="26.4mm" y2="26.4mm" /><line x1="23.12mm" x2="36.24mm" y1="99.456mm" y2="99.456mm" /><line stroke-dasharray="6 2" x1="23.12mm" x2="36.24mm" y1="56.288mm" y2="56.288mm" /><line stroke-dasharray="6 2" x1="23.12mm" x2="36.24mm" y1="86.336mm" y2="86.336mm" /><line stroke-dasharray="6 2" x1="23.12mm" x2="23.12mm" y1="26.4mm" y2="39.52mm" /><line x1="23.12mm" x2="23.12mm" y1="39.52mm" y2="73.056mm" /><line stroke-dasharray="6 2" x1="23.12mm" x2="23.12mm" y1="73.056mm" y2="86.336mm" /><line x1="23.12mm" x2="23.12mm" y1="26.4mm" y2="26.4mm" /><line x1="23.12mm" x2="23.12mm" y1="86.336mm" y2="99.456mm" /><line x1="27.4496mm" x2="31.9104mm" y1="43.168mm" y2="43.168mm" /><line x1="27.4496mm" x2="31.9104mm" y1="39.52mm" y2="39.52mm" /><line x1="27.4496mm" x2="27.4496mm" y1="43.168mm" y2="39.52mm" /><line x1="31.9104mm" x2="31.9104mm" y1="43.168mm" y2="39.52mm" /><line x1="27.4496mm" x2="31.9104mm" y1="73.056mm" y2="73.056mm" /><line x1="27.4496mm" x2="31.9104mm" y1="69.408mm" y2="69.408mm" /><line x1="27.4496mm" x2="27.4496mm" y1="73.056mm" y2="69.408mm" /><line x1="31.9104mm" x2="31.9104mm" y1="73.056mm" y2="69.408mm" /><line x1="36.24mm" x2="49.36mm" y1="26.4mm" y2="26.4mm" /><line x1="36.24mm" x2="49.36mm" y1="99.616mm" y2="99.616mm" /><line stroke-dasharray="6 2" x1="36.24mm" x2="49.36mm" y1="56.288mm" y2="56.288mm" /><line stroke-dasharray="6 2" x1="36.24mm" x2="49.36mm" y1="86.496mm" y2="86.496mm" /><line stroke-dasharray="6 2" x1="36.24mm" x2="36.24mm" y1="26.4mm" y2="39.52mm" /><line x1="36.24mm" x2="36.24mm" y1="39.52mm" y2="73.056mm" /><line stroke-dasharray="6 2" x1="36.24mm" x2="36.24mm" y1="73.056mm" y2="86.496mm" /><line x1="36.24mm" x2="36.24mm" y1="26.4mm" y2="26.4mm" /><line x1="36.24mm" x2="36.24mm" y1="86.496mm" y2="99.616mm" /><line x1="40.5696mm" x2="45.0304mm" y1="43.168mm" y2="43.168mm" /><line x1="40.5696mm" x2="45.0304mm" y1="39.52mm" y2="39.52mm" /><line x1="40.5696mm" x2="40.5696mm" y1="43.168mm" y2="39.52mm" /><line x1="45.0304mm" x2="45.0304mm" y1="43.168mm" y2="39.52mm" /><line x1="40.5696mm" x2="45.0304mm" y1="73.056mm" y2="73.056mm" /><line x1="40.5696mm" x2="45.0304mm" y1="69.408mm" y2="69.408mm" /><line x1="40.5696mm" x2="40.5696mm" y1="73.056mm" y2="69.408mm" /><line x1="45.0304mm" x2="45.0304mm" y1="73.056mm" y2="69.408mm" /><line x1="49.36mm" x2="62.48mm" y1="26.4mm" y2="26.4mm" /><line x1="49.36mm" x2="62.48mm" y1="99.776mm" y2="99.776mm" /><line stroke-dasharray="6 2" x1="49.36mm" x2="62.48mm" y1="56.288mm" y2="56.288mm" /><line stroke-dasharray="6 2" x1="49.36mm" x2="62.48mm" y1="86.656mm" y2="86.656mm" /><line stroke-dasharray="6 2" x1="49.36mm" x2="49.36mm" y1="26.4mm" y2="39.52mm" /><line x1="49.36mm" x2="49.36mm" y1="39.52mm" y2="73.056mm" /><line stroke-dasharray="6 2" x1="49.36mm" x2="49.36mm" y1="73.056mm" y2="86.656mm" /><line x1="49.36mm" x2="49.36mm" y1="26.4mm" y2="26.4mm" /><line x1="49.36mm" x2="49.36mm" y1="86.656mm" y2="99.776mm" /><line x1="53.6896mm" x2="58.1504mm" y1="43.168mm" y2="43.168mm" /><line x1="53.6896mm" x2="58.1504mm" y1="39.52mm" y2="39.52mm" /><line x1="53.6896mm" x2="53.6896mm" y1="43.168mm" y2="39.52mm" /><line x1="58.1504mm" x2="58.1504mm" y1="43.168mm" y2="39.52mm" /><line x1="53.6896mm" x2="58.1504mm" y1="73.056mm" y2="73.056mm" /><line x1="53.6896mm" x2="58.1504mm" y1="69.408mm" y2="69.408mm" /><line x1="53.6896mm" x2="53.6896mm" y1="73.056mm" y2="69.408mm" /><line x1="58.1504mm" x2="58.1504mm" y1="73.056mm" y2="69.408mm" /><line x1="62.48mm" x2="74.96mm" y1="27.04mm" y2="27.04mm" /><line x1="62.48mm" x2="74.96mm" y1="39.52mm" y2="39.52mm" /><line x1="62.48mm" x2="74.96mm" y1="73.44mm" y2="73.44mm" /><line x1="62.48mm" x2="74.96mm" y1="85.92mm" y2="85.92mm" /><line x1="74.8mm" x2="74.8mm" y1="27.04mm" y2="39.52mm" /><line x1="74.8mm" x2="74.8mm" y1="73.44mm" y2="85.92mm" /><line stroke-dasharray="6 2" x1="62.32mm" x2="62.32mm" y1="27.04mm" y2="39.52mm" /><line stroke-dasharray="6 2" x1="62.32mm" x2="62.32mm" y1="73.44mm" y2="85.92mm" /><line x1="62.48mm" x2="62.48mm" y1="26.4mm" y2="27.04mm" /><line x1="62.48mm" x2="62.48mm" y1="99.776mm" y2="85.92mm" /><line x1="62.48mm" x2="62.48mm" y1="39.52mm" y2="73.44mm" /></g><g id="scores" stroke="red"><line x1="10mm" x2="23.12mm" y1="39.52mm" y2="39.52mm" /><line x1="10mm" x2="23.12mm" y1="39.712mm" y2="39.712mm" /><line x1="10mm" x2="23.12mm" y1="39.904mm" y2="39.904mm" /><line x1="10mm" x2="23.12mm" y1="40.096mm" y2="40.096mm" /><line x1="10mm" x2="23.12mm" y1="40.288mm" y2="40.288mm" /><line x1="10mm" x2="23.12mm" y1="40.48mm" y2="40.48mm" /><line x1="10mm" x2="23.12mm" y1="40.672mm" y2="40.672mm" /><line x1="10mm" x2="23.12mm" y1="40.864mm" y2="40.864mm" /><line x1="10mm" x2="23.12mm" y1="41.056mm" y2="41.056mm" /><line x1="10mm" x2="23.12mm" y1="41.248mm" y2="41.248mm" /><line x1="10mm" x2="23.12mm" y1="41.44mm" y2="41.44mm" /><line x1="10mm" x2="23.12mm" y1="41.632mm" y2="41.632mm" /><line x1="10mm" x2="23.12mm" y1="41.824mm" y2="41.824mm" /><line x1="10mm" x2="23.12mm" y1="42.016mm" y2="42.016mm" /><line x1="10mm" x2="23.12mm" y1="42.208mm" y2="42.208mm" /><line x1="10mm" x2="23.12mm" y1="42.4mm" y2="42.4mm" /><line x1="10mm" x2="23.12mm" y1="42.592mm" y2="42.592mm" /><line x1="10mm" x2="23.12mm" y1="42.784mm" y2="42.784mm" /><line x1="10mm" x2="23.12mm" y1="42.976mm" y2="42.976mm" /><line x1="10mm" x2="23.12mm" y1="43.168mm" y2="43.168mm" /><line x1="10mm" x2="23.12mm" y1="69.408mm" y2="69.408mm" /><line x1="10mm" x2="23.12mm" y1="69.6mm" y2="69.6mm" /><line x1="10mm" x2="23.12mm" y1="69.792mm" y2="69.792mm" /><line x1="10mm" x2="23.12mm" y1="69.984mm" y2="69.984mm" /><line x1="10mm" x2="23.12mm" y1="70.176mm" y2="70.176mm" /><line x1="10mm" x2="23.12mm" y1="70.368mm" y2="70.368mm" /><line x1="10mm" x2="23.12mm" y1="70.56mm" y2="70.56mm" /><line x1="10mm" x2="23.12mm" y1="70.752mm" y2="70.752mm" /><line x1="10mm" x2="23.12mm" y1="70.944mm" y2="70.944mm" /><line x1="10mm" x2="23.12mm" y1="71.136mm" y2="71.136mm" /><line x1="10mm" x2="23.12mm" y1="71.328mm" y2="71.328mm" /><line x1="10mm" x2="23.12mm" y1="71.52mm" y2="71.52mm" /><line x1="10mm" x2="23.12mm" y1="71.712mm" y2="71.712mm" /><line x1="10mm" x2="23.12mm" y1="71.904mm" y2="71.904mm" /><line x1="10mm" x2="23.12mm" y1="72.096mm" y2="72.096mm" /><line x1="10mm" x2="23.12mm" y1="72.288mm" y2="72.288mm" /><line x1="10mm" x2="23.12mm" y1="72.48mm" y2="72.48mm" /><line x1="10mm" x2="23.12mm" y1="72.672mm" y2="72.672mm" /><line x1="10mm" x2="23.12mm" y1="72.864mm" y2="72.864mm" /><line x1="10mm" x2="23.12mm" y1="73.056mm" y2="73.056mm" /><line x1="23.12mm" x2="36.24mm" y1="39.52mm" y2="39.52mm" /><line x1="23.12mm" x2="36.24mm" y1="39.712mm" y2="39.712mm" /><line x1="23.12mm" x2="36.24mm" y1="39.904mm" y2="39.904mm" /><line x1="23.12mm" x2="36.24mm" y1="40.096mm" y2="40.096mm" /><line x1="23.12mm" x2="36.24mm" y1="40.288mm" y2="40.288mm" /><line x1="23.12mm" x2="36.24mm" y1="40.48mm" y2="40.48mm" /><line x1="23.12mm" x2="36.24mm" y1="40.672mm" y2="40.672mm" /><line x1="23.12mm" x2="36.24mm" y1="40.864mm" y2="40.864mm" /><line x1="23.12mm" x2="36.24mm" y1="41.056mm" y2="41.056mm" /><line x1="23.12mm" x2="36.24mm" y1="41.248mm" y2="41.248mm" /><line x1="23.12mm" x2="36.24mm" y1="41.44mm" y2="41.44mm" /><line x1="23.12mm" x2="36.24mm" y1="41.632mm" y2="41.632mm" /><line x1="23.12mm" x2="36.24mm" y1="41.824mm" y2="41.824mm" /><line x1="23.12mm" x2="36.24mm" y1="42.016mm" y2="42.016mm" /><line x1="23.12mm" x2="36.24mm" y1="42.208mm" y2="42.208mm" /><line x1="23.12mm" x2="36.24mm" y1="42.4mm" y2="42.4mm" /><line x1="23.12mm" x2="36.24mm" y1="42.592mm" y2="42.592mm" /><line x1="23.12mm" x2="36.24mm" y1="42.784mm" y2="42.784mm" /><line x1="23.12mm" x2="36.24mm" y1="42.976mm" y2="42.976mm" /><line x1="23.12mm" x2="36.24mm" y1="43.168mm" y2="43.168mm" /><line x1="23.12mm" x2="36.24mm" y1="69.408mm" y2="69.408mm" /><line x1="23.12mm" x2="36.24mm" y1="69.6mm" y2="69.6mm" /><line x1="23.12mm" x2="36.24mm" y1="69.792mm" y2="69.792mm" /><line x1="23.12mm" x2="36.24mm" y1="69.984mm" y2="69.984mm" /><line x1="23.12mm" x2="36.24mm" y1="70.176mm" y2="70.176mm" /><line x1="23.12mm" x2="36.24mm" y1="70.368mm" y2="70.368mm" /><line x1="23.12mm" x2="36.24mm" y1="70.56mm" y2="70.56mm" /><line x1="23.12mm" x2="36.24mm" y1="70.752mm" y2="70.752mm" /><line x1="23.12mm" x2="36.24mm" y1="70.944mm" y2="70.944mm" /><line x1="23.12mm" x2="36.24mm" y1="71.136mm" y2="71.136mm" /><line x1="23.12mm" x2="36.24mm" y1="71.328mm" y2="71.328mm" /><line x1="23.12mm" x2="36.24mm" y1="71.52mm" y2="71.52mm" /><line x1="23.12mm" x2="36.24mm" y1="71.712mm" y2="71.712mm" /><line x1="23.12mm" x2="36.24mm" y1="71.904mm" y2="71.904mm" /><line x1="23.12mm" x2="36.24mm" y1="72.096mm" y2="72.096mm" /><line x1="23.12mm" x2="36.24mm" y1="72.288mm" y2="72.288mm" /><line x1="23.12mm" x2="36.24mm" y1="72.48mm" y2="72.48mm" /><line x1="23.12mm" x2="36.24mm" y1="72.672mm" y2="72.672mm" /><line x1="23.12mm" x2="36.24mm" y1="72.864mm" y2="72.864mm" /><line x1="23.12mm" x2="36.24mm" y1="73.056mm" y2="73.056mm" /><line x1="36.24mm" x2="49.36mm" y1="39.52mm" y2="39.52mm" /><line x1="36.24mm" x2="49.36mm" y1="39.712mm" y2="39.712mm" /><line x1="36.24mm" x2="49.36mm" y1="39.904mm" y2="39.904mm" /><line x1="36.24mm" x2="49.36mm" y1="40.096mm" y2="40.096mm" /><line x1="36.24mm" x2="49.36mm" y1="40.288mm" y2="40.288mm" /><line x1="36.24mm" x2="49.36mm" y1="40.48mm" y2="40.48mm" /><line x1="36.24mm" x2="49.36mm" y1="40.672mm" y2="40.672mm" /><line x1="36.24mm" x2="49.36mm" y1="40.864mm" y2="40.864mm" /><line x1="36.24mm" x2="49.36mm" y1="41.056mm" y2="41.056mm" /><line x1="36.24mm" x2="49.36mm" y1="41.248mm" y2="41.248mm" /><line x1="36.24mm" x2="49.36mm" y1="41.44mm" y2="41.44mm" /><line x1="36.24mm" x2="49.36mm" y1="41.632mm" y2="41.632mm" /><line x1="36.24mm" x2="49.36mm" y1="41.824mm" y2="41.824mm" /><line x1="36.24mm" x2="49.36mm" y1="42.016mm" y2="42.016mm" /><line x1="36.24mm" x2="49.36mm" y1="42.208mm" y2="42.208mm" /><line x1="36.24mm" x2="49.36mm" y1="42.4mm" y2="42.4mm" /><line x1="36.24mm" x2="49.36mm" y1="42.592mm" y2="42.592mm" /><line x1="36.24mm" x2="49.36mm" y1="42.784mm" y2="42.784mm" /><line x1="36.24mm" x2="49.36mm" y1="42.976mm" y2="42.976mm" /><line x1="36.24mm" x2="49.36mm" y1="43.168mm" y2="43.168mm" /><line x1="36.24mm" x2="49.36mm" y1="69.408mm" y2="69.408mm" /><line x1="36.24mm" x2="49.36mm" y1="69.6mm" y2="69.6mm" /><line x1="36.24mm" x2="49.36mm" y1="69.792mm" y2="69.792mm" /><line x1="36.24mm" x2="49.36mm" y1="69.984mm" y2="69.984mm" /><line x1="36.24mm" x2="49.36mm" y1="70.176mm" y2="70.176mm" /><line x1="36.24mm" x2="49.36mm" y1="70.368mm" y2="70.368mm" /><line x1="36.24mm" x2="49.36mm" y1="70.56mm" y2="70.56mm" /><line x1="36.24mm" x2="49.36mm" y1="70.752mm" y2="70.752mm" /><line x1="36.24mm" x2="49.36mm" y1="70.944mm" y2="70.944mm" /><line x1="36.24mm" x2="49.36mm" y1="71.136mm" y2="71.136mm" /><line x1="36.24mm" x2="49.36mm" y1="71.328mm" y2="71.328mm" /><line x1="36.24mm" x2="49.36mm" y1="71.52mm" y2="71.52mm" /><line x1="36.24mm" x2="49.36mm" y1="71.712mm" y2="71.712mm" /><line x1="36.24mm" x2="49.36mm" y1="71.904mm" y2="71.904mm" /><line x1="36.24mm" x2="49.36mm" y1="72.096mm" y2="72.096mm" /><line x1="36.24mm" x2="49.36mm" y1="72.288mm" y2="72.288mm" /><line x1="36.24mm" x2="49.36mm" y1="72.48mm" y2="72.48mm" /><line x1="36.24mm" x2="49.36mm" y1="72.672mm" y2="72.672mm" /><line x1="36.24mm" x2="49.36mm" y1="72.864mm" y2="72.864mm" /><line x1="36.24mm" x2="49.36mm" y1="73.056mm" y2="73.056mm" /><line x1="49.36mm" x2="62.48mm" y1="39.52mm" y2="39.52mm" /><line x1="49.36mm" x2="62.48mm" y1="39.712mm" y2="39.712mm" /><line x1="49.36mm" x2="62.48mm" y1="39.904mm" y2="39.904mm" /><line x1="49.36mm" x2="62.48mm" y1="40.096mm" y2="40.096mm" /><line x1="49.36mm" x2="62.48mm" y1="40.288mm" y2="40.288mm" /><line x1="49.36mm" x2="62.48mm" y1="40.48mm" y2="40.48mm" /><line x1="49.36mm" x2="62.48mm" y1="40.672mm" y2="40.672mm" /><line x1="49.36mm" x2="62.48mm" y1="40.864mm" y2="40.864mm" /><line x1="49.36mm" x2="62.48mm" y1="41.056mm" y2="41.056mm" /><line x1="49.36mm" x2="62.48mm" y1="41.248mm" y2="41.248mm" /><line x1="49.36mm" x2="62.48mm" y1="41.44mm" y2="41.44mm" /><line x1="49.36mm" x2="62.48mm" y1="41.632mm" y2="41.632mm" /><line x1="49.36mm" x2="62.48mm" y1="41.824mm" y2="41.824mm" /><line x1="49.36mm" x2="62.48mm" y1="42.016mm" y2="42.016mm" /><line x1="49.36mm" x2="62.48mm" y1="42.208mm" y2="42.208mm" /><line x1="49.36mm" x2="62.48mm" y1="42.4mm" y2="42.4mm" /><line x1="49.36mm" x2="62.48mm" y1="42.592mm" y2="42.592mm" /><line x1="49.36mm" x2="62.48mm" y1="42.784mm" y2="42.784mm" /><line x1="49.36mm" x2="62.48mm" y1="42.976mm" y2="42.976mm" /><line x1="49.36mm" x2="62.48mm" y1="43.168mm" y2="43.168mm" /><line x1="49.36mm" x2="62.48mm" y1="69.408mm" y2="69.408mm" /><line x1="49.36mm" x2="62.48mm" y1="69.6mm" y2="69.6mm" /><line x1="49.36mm" x2="62.48mm" y1="69.792mm" y2="69.792mm" /><line x1="49.36mm" x2="62.48mm" y1="69.984mm" y2="69.984mm" /><line x1="49.36mm" x2="62.48mm" y1="70.176mm" y2="70.176mm" /><line x1="49.36mm" x2="62.48mm" y1="70.368mm" y2="70.368mm" /><line x1="49.36mm" x2="62.48mm" y1="70.56mm" y2="70.56mm" /><line x1="49.36mm" x2="62.48mm" y1="70.752mm" y2="70.752mm" /><line x1="49.36mm" x2="62.48mm" y1="70.944mm" y2="70.944mm" /><line x1="49.36mm" x2="62.48mm" y1="71.136mm" y2="71.136mm" /><line x1="49.36mm" x2="62.48mm" y1="71.328mm" y2="71.328mm" /><line x1="49.36mm" x2="62.48mm" y1="71.52mm" y2="71.52mm" /><line x1="49.36mm" x2="62.48mm" y1="71.712mm" y2="71.712mm" /><line x1="49.36mm" x2="62.48mm" y1="71.904mm" y2="71.904mm" /><line x1="49.36mm" x2="62.48mm" y1="72.096mm" y2="72.096mm" /><line x1="49.36mm" x2="62.48mm" y1="72.288mm" y2="72.288mm" /><line x1="49.36mm" x2="62.48mm" y1="72.48mm" y2="72.48mm" /><line x1="49.36mm" x2="62.48mm" y1="72.672mm" y2="72.672mm" /><line x1="49.36mm" x2="62.48mm" y1="72.864mm" y2="72.864mm" /><line x1="49.36mm" x2="62.48mm" y1="73.056mm" y2="73.056mm" /></g></svg>